<svg width="16" height="17" viewBox="0 0 16 17" fill="none" xmlns="http://www.w3.org/2000/svg">
<g clip-path="url(#clip0_2127_49642)">
<path d="M8.94376 0.893555H7.73828V4.29081H8.94376V0.893555Z" fill="#1D1D1B"/>
<path d="M15.2515 4.49472L12.2617 6.2204L12.8917 7.31192L15.8816 5.58624L15.2515 4.49472Z" fill="#1D1D1B"/>
<path d="M12.8995 11.069L12.2695 12.1605L15.2594 13.8862L15.8894 12.7947L12.8995 11.069Z" fill="#1D1D1B"/>
<path d="M5.72421 3.30663L4.63281 3.93677L5.39994 5.26542L6.49133 4.63529L5.72421 3.30663Z" fill="#1D1D1B"/>
<path d="M14.9722 8.56476H13.2188V9.77024H14.9722V8.56476Z" fill="#1D1D1B"/>
<path d="M11.0365 3.33171L10.2695 4.66052L11.3611 5.29053L12.128 3.96172L11.0365 3.33171Z" fill="#1D1D1B"/>
<path d="M1.26295 4.45816L0.632812 5.54956L3.62229 7.27559L4.25243 6.18419L1.26295 4.45816Z" fill="#1D1D1B"/>
<path d="M3.58357 11.0774L0.59375 12.803L1.22376 13.8946L4.21359 12.1689L3.58357 11.0774Z" fill="#1D1D1B"/>
<path d="M3.46436 8.56476H1.71094V9.77024H3.46436V8.56476Z" fill="#1D1D1B"/>
<path d="M8.39442 5.2771C6.20264 5.2771 4.44922 7.03052 4.44922 9.16751C4.44922 10.2086 4.83278 11.1949 5.6547 11.962C5.98347 12.2908 6.09305 12.5648 6.09305 13.0031V15.4689L7.51771 16.8935H9.10675L10.5314 15.4689V13.0031C10.5314 12.6196 10.641 12.2908 10.9698 11.962C11.7917 11.1401 12.1752 10.2086 12.1752 9.16751C12.2848 7.03052 10.5314 5.2771 8.39442 5.2771ZM8.39442 6.48258C9.87388 6.48258 11.0794 7.68806 11.0794 9.16751C11.0794 9.87984 10.8054 10.5374 10.2574 11.1401C9.70949 11.6881 9.49031 12.236 9.49031 12.9483H7.40812C7.40812 12.236 7.13415 11.6881 6.5862 11.1401C6.03826 10.5374 5.76429 9.93463 5.76429 9.16751C5.70949 7.68806 6.91497 6.48258 8.39442 6.48258ZM8.06566 15.6881L7.35333 14.9757V14.2086H9.43552V14.9757L8.6684 15.6881H8.06566Z" fill="#1D1D1B"/>
</g>
<defs>
<clipPath id="clip0_2127_49642">
<rect width="15.2329" height="16" fill="white" transform="translate(0.613281 0.893555)"/>
</clipPath>
</defs>
</svg>
