<svg width="17" height="17" viewBox="0 0 17 17" fill="none" xmlns="http://www.w3.org/2000/svg">
<g clip-path="url(#clip0_2127_49657)">
<path d="M14.6457 11.0903L14.2522 10.6968C13.9244 10.4017 13.826 10.0739 13.7276 9.54928C13.5637 8.72961 13.2031 8.27059 12.8424 7.90993L11.6949 6.76239C11.2358 6.30338 10.6457 6.30338 10.1867 6.76239L10.0227 6.92633L8.90797 5.81157C8.71125 5.61485 8.44896 5.4837 8.18666 5.4837C7.89158 5.4837 7.62929 5.58206 7.43256 5.77879L7.23584 5.97551C6.80961 5.61485 6.18666 5.61485 5.79322 6.04108C5.5965 6.2378 5.46535 6.5001 5.46535 6.79518C5.46535 7.05747 5.56371 7.28698 5.72765 7.4837L5.56371 7.64764C5.13748 8.07387 5.13748 8.76239 5.53092 9.18862L5.69486 9.35256L5.53092 9.51649C5.1047 9.94272 5.1047 10.6312 5.49814 11.0575L8.28502 13.8444C8.64568 14.205 9.07191 14.3362 9.49814 14.4673C9.76043 14.5657 10.0227 14.6312 10.1539 14.7624L10.5473 15.1558L10.3178 15.3853L11.826 16.8935L12.4162 16.3034L11.4981 15.3853L14.8752 12.0083L15.7932 12.9263L16.3834 12.3362L14.8752 10.828L14.6457 11.0903ZM6.15388 10.0739L6.31781 9.90993L7.95715 11.5493L8.54732 10.9591L6.18666 8.59846C6.0883 8.5001 6.0883 8.33616 6.21945 8.2378L6.38338 8.07387L8.94076 10.6312L9.53092 10.0411L6.44896 6.95911C6.41617 6.92633 6.38338 6.86075 6.38338 6.79518C6.38338 6.72961 6.41617 6.66403 6.44896 6.59846C6.54732 6.5001 6.67847 6.5001 6.77683 6.59846L9.85879 9.68042L10.449 9.09026L7.89158 6.53288L8.0883 6.33616C8.15388 6.27059 8.18666 6.27059 8.25224 6.27059C8.31781 6.27059 8.38338 6.30338 8.41617 6.33616L11.0391 8.95911L11.6293 8.36895L10.7113 7.45092L10.8752 7.28698C10.9408 7.22141 11.0063 7.18862 11.0719 7.18862C11.1047 7.18862 11.1703 7.22141 11.2358 7.28698L12.3834 8.43452C12.6457 8.69682 12.9408 9.05747 13.0391 9.64764C13.1375 10.1722 13.2686 10.7296 13.7604 11.2214L14.1539 11.6149L11.2686 14.5001L10.8752 14.1067C10.6129 13.8444 10.2522 13.7132 9.89158 13.6149C9.56371 13.5165 9.23584 13.3853 9.00633 13.1886L6.21945 10.4017C6.18666 10.3689 6.15388 10.3034 6.15388 10.2378C6.05551 10.205 6.0883 10.1394 6.15388 10.0739Z" fill="#1D1D1B"/>
<path d="M7.66246 13.287C7.53131 13.3526 7.40017 13.3854 7.23623 13.4509H7.20345C6.84279 13.5821 6.48213 13.6804 6.21984 13.9427L5.8264 14.3362L2.94115 11.4509L3.33459 11.0575C3.76082 10.6313 3.92476 10.1722 4.0559 9.58208V9.54929L4.67885 10.1722L5.26902 9.58208L4.28541 8.59847C4.08869 8.40175 3.95754 8.0411 3.85918 7.71323C3.72804 7.35257 3.62967 6.99192 3.36738 6.72962L2.97394 6.33618L5.85918 3.45093L6.21984 3.84437C6.71164 4.33618 7.26902 4.46732 7.79361 4.56569C8.38377 4.66405 8.74443 4.95913 9.00672 5.22142L10.2198 6.43454L10.81 5.84437L9.59689 4.63126C9.49853 4.5329 9.36738 4.40175 9.23623 4.30339H9.30181C9.85918 4.20503 10.351 4.0411 10.7772 3.58208L11.1707 3.18864L14.0559 6.07388L13.6625 6.46733C13.4002 6.72962 13.269 7.09028 13.1707 7.45093C13.1379 7.58208 13.0723 7.74601 13.0067 7.87716L12.9739 7.94273L13.728 8.2706L13.7608 8.20503C13.8264 8.0411 13.892 7.84437 13.9575 7.71323C14.0559 7.45093 14.1215 7.18864 14.2526 7.05749L14.6461 6.66405L14.8756 6.89355L16.3838 5.38536L15.7936 4.82798L14.8756 5.74601L11.4985 2.40175L12.4166 1.48372L11.8592 0.893555L10.351 2.40175L10.5805 2.63126L10.1871 3.0247C9.89197 3.31978 9.5641 3.45093 9.13787 3.51651H9.0723L9.23623 4.30339C8.94115 4.07388 8.54771 3.87716 7.99033 3.74601C7.49853 3.64765 7.13787 3.54929 6.84279 3.25421L6.41656 2.86077L6.64607 2.63126L5.13787 1.12306L4.54771 1.71323L5.46574 2.63126L2.12148 6.00831L1.20345 5.09028L0.613281 5.64765L2.12148 7.15585L2.35099 6.92634L2.74443 7.31978C2.87558 7.45093 2.94115 7.71323 3.03951 7.97552C3.17066 8.36896 3.33459 8.82798 3.66246 9.18864L3.95754 9.48372L3.23623 9.35257V9.41815C3.13787 9.84437 3.03951 10.1722 2.74443 10.4673L2.35099 10.8608L2.12148 10.6313L0.613281 12.1395L1.20345 12.7296L2.12148 11.8116L5.49853 15.1886L4.54771 16.0739L5.13787 16.664L6.64607 15.1558L6.41656 14.9263L6.81 14.5329C6.94115 14.4018 7.20344 14.3362 7.46574 14.2378C7.62967 14.1722 7.79361 14.1395 7.95754 14.0739L8.02312 14.0411L7.69525 13.287H7.66246Z" fill="#1D1D1B"/>
</g>
<defs>
<clipPath id="clip0_2127_49657">
<rect width="15.7705" height="16" fill="white" transform="translate(0.613281 0.893555)"/>
</clipPath>
</defs>
</svg>
