<svg width="24" height="24" viewBox="0 0 24 24" fill="none" xmlns="http://www.w3.org/2000/svg">
<g clip-path="url(#clip0_1900_45455)">
<path d="M24 9.09156C24 7.76921 23.4918 6.51534 22.5696 5.55973L22.559 5.54755C22.5285 5.51103 22.4951 5.47756 22.4555 5.44408C21.4892 4.50976 20.2323 4 18.9069 4H5.09308C3.72204 4 2.43622 4.53868 1.46995 5.51864C1.43799 5.54907 1.41364 5.57494 1.39082 5.60233C0.489982 6.55795 0 7.79508 0 9.09156V16.9769C0 19.7844 2.28405 22.07 5.09308 22.07H18.9084C21.716 22.07 24.0015 19.786 24.0015 16.9769V9.09156H24ZM3.96094 5.96754C4.33071 5.83363 4.71113 5.76515 5.09308 5.76515H18.9084C19.263 5.76515 19.6175 5.82298 19.9614 5.93863L20.3906 6.08319L11.9985 11.9584L3.54552 6.11818L3.96094 5.96754ZM22.2333 16.9769C22.2333 18.8106 20.7421 20.3033 18.9069 20.3033H5.09308C3.25945 20.3033 1.76667 18.8121 1.76667 16.9769V9.09156C1.76667 8.57114 1.88689 8.0705 2.12427 7.6003L2.24296 7.36597L11.4994 13.7616C11.7976 13.967 12.2115 13.967 12.5082 13.7586L21.7251 7.30662L21.8468 7.53487C22.1009 8.01268 22.2364 8.55136 22.2364 9.09308V16.9784L22.2333 16.9769Z" fill="#1D1D1B"/>
</g>
<defs>
<clipPath id="clip0_1900_45455">
<rect width="24" height="24" fill="white"/>
</clipPath>
</defs>
</svg>
