<svg width="20" height="24" viewBox="0 0 20 24" fill="none" xmlns="http://www.w3.org/2000/svg">
<mask id="path-1-inside-1_1900_45464" fill="white">
<path fill-rule="evenodd" clip-rule="evenodd" d="M20 11.9999L0 23.4285L-9.99118e-07 0.571324L20 11.9999ZM14.878 11.9999L2.56103 19.0381L2.56102 4.96165L14.878 11.9999Z"/>
</mask>
<path fill-rule="evenodd" clip-rule="evenodd" d="M20 11.9999L0 23.4285L-9.99118e-07 0.571324L20 11.9999ZM14.878 11.9999L2.56103 19.0381L2.56102 4.96165L14.878 11.9999Z" fill="#EB5958"/>
<path d="M20 11.9999L74.0791 -82.6386L239.697 11.9999L74.0791 106.638L20 11.9999ZM0 23.4285L54.0791 118.067L-109 211.255L-109 23.4285L0 23.4285ZM-9.99118e-07 0.571324L-109 0.571329L-109 -187.255L54.0791 -94.0672L-9.99118e-07 0.571324ZM2.56103 19.0381L56.6402 113.677L-106.439 206.865L-106.439 19.0381L2.56103 19.0381ZM14.878 11.9999L68.9571 -82.6386L234.574 11.9999L68.9571 106.638L14.878 11.9999ZM2.56102 4.96165L-106.439 4.96166L-106.439 -182.865L56.6402 -89.6769L2.56102 4.96165ZM-51.5181 -75.6004L-39.2012 -82.6386L68.9571 106.638L56.6402 113.677L-51.5181 -75.6004ZM111.561 4.96165L111.561 19.0381L-106.439 19.0381L-106.439 4.96166L111.561 4.96165ZM-39.2012 106.638L-51.5181 99.6002L56.6402 -89.6769L68.9571 -82.6386L-39.2012 106.638ZM-54.0792 -71.21L-34.0791 -82.6386L74.0791 106.638L54.0791 118.067L-54.0792 -71.21ZM109 0.57132L109 23.4285L-109 23.4285L-109 0.571329L109 0.57132ZM-34.0791 106.638L-54.0791 95.2098L54.0791 -94.0672L74.0791 -82.6386L-34.0791 106.638Z" fill="#EB5958" mask="url(#path-1-inside-1_1900_45464)"/>
</svg>
